<svg width="48" height="47" viewBox="0 0 48 47" fill="none" xmlns="http://www.w3.org/2000/svg">
<path d="M47.3895 10.7546C46.8704 10.1073 46.0756 9.73555 45.2104 9.73555H9.91501L7.79357 1.08315C7.63975 0.448643 7.06292 0 6.40919 0H1.42284C0.634509 0 0 0.640919 0 1.42284C0 2.20476 0.640919 2.84568 1.42284 2.84568H5.29399L13.2927 35.462C11.2353 36.3016 9.78042 38.3205 9.78042 40.6727C9.78042 43.7747 12.3056 46.3 15.4077 46.3C18.5097 46.3 21.0349 43.7747 21.0349 40.6727C21.0349 39.6665 20.7658 38.7179 20.2979 37.8975H29.5399C29.0721 38.7179 28.8029 39.6665 28.8029 40.6727C28.8029 43.7747 31.3281 46.3 34.4301 46.3C37.5322 46.3 40.0574 43.7747 40.0574 40.6727C40.0574 37.5706 37.5322 35.0454 34.4301 35.0454C34.4045 35.0454 34.3725 35.0454 34.3468 35.0454C34.334 35.0454 34.3148 35.0454 34.302 35.0454H16.1255L15.3308 31.8088H38.7499C39.9164 31.8088 40.9547 31.1038 41.3264 30.0783L47.7869 13.2221C47.7869 13.2157 47.7869 13.2157 47.7933 13.2093C47.7997 13.1965 47.7997 13.1901 47.8061 13.1773C48.1009 12.3505 47.9471 11.4468 47.3895 10.7546ZM18.1829 40.6727C18.1829 42.2045 16.9395 43.4479 15.4077 43.4479C13.8759 43.4479 12.6325 42.2045 12.6325 40.6727C12.6325 39.1409 13.8759 37.8975 15.4077 37.8975C16.9395 37.8975 18.1829 39.1473 18.1829 40.6727ZM34.4301 43.4543C32.8984 43.4543 31.655 42.2109 31.655 40.6791C31.655 39.1473 32.8984 37.9039 34.4301 37.9039C35.9619 37.9039 37.2053 39.1473 37.2053 40.6791C37.2053 42.2045 35.9619 43.4543 34.4301 43.4543ZM38.7115 28.9631H14.6322L10.6136 12.5876H44.9861L38.7115 28.9631Z" fill="white"/>
<path d="M17.3689 18.9968H36.1799C36.9682 18.9968 37.6027 18.3559 37.6027 17.574C37.6027 16.792 36.9618 16.1511 36.1799 16.1511H17.3689C16.5806 16.1511 15.9461 16.792 15.9461 17.574C15.9461 18.3559 16.5806 18.9968 17.3689 18.9968Z" fill="white"/>
<path d="M34.5391 22.554H19.0096C18.2213 22.554 17.5868 23.1949 17.5868 23.9768C17.5868 24.7651 18.2277 25.3996 19.0096 25.3996H34.5391C35.3274 25.3996 35.9619 24.7587 35.9619 23.9768C35.9619 23.1885 35.321 22.554 34.5391 22.554Z" fill="white"/>
</svg>
