<svg width="51" height="49" viewBox="0 0 51 49" fill="none" xmlns="http://www.w3.org/2000/svg">
<path d="M19.4778 41.2256C25.3425 40.389 29.2973 34.9976 28.4607 29.2512C28.4607 28.7695 28.3424 28.4146 28.2241 28.0512L27.1425 28.1696L25.8242 28.4062C25.8242 28.8878 25.9425 29.2428 26.0608 29.6061C26.7791 34.0342 23.6693 38.2257 19.1145 38.9524C14.5596 39.6707 10.3682 36.5609 9.64988 32.1244C8.93158 27.6963 12.0414 23.5049 16.5962 22.7781C17.0779 22.6598 17.4328 22.6598 17.9145 22.7781L17.6779 21.4598L17.5596 20.3782C17.1962 20.3782 16.723 20.3782 16.3596 20.4965C10.4949 21.3415 6.54009 26.733 7.37669 32.4793C8.21329 38.2257 13.6047 42.1805 19.4778 41.2256Z" fill="white"/>
<path d="M2.59364 33.1975C1.39367 24.8146 7.14002 17.0317 15.5229 15.7134C15.8863 15.5951 16.3595 15.5951 16.7229 15.5951L16.4863 14.3951L16.368 13.3135C16.0046 13.3135 15.5314 13.4318 15.168 13.4318C5.46682 14.8768 -1.24289 23.8597 0.193696 33.4426C0.793682 37.3975 2.71195 40.7523 5.34006 43.3804L7.25833 41.9438C4.86683 39.7889 3.06687 36.6707 2.59364 33.1975Z" fill="white"/>
<path d="M33.4887 22.5415L31.4521 23.8598C32.1704 25.2964 32.7704 26.8513 33.007 28.5329C34.3253 36.7975 28.4522 44.5805 20.0693 45.8987C18.2693 46.1354 16.4778 46.1354 14.7962 45.7804L14.4328 47.9353V48.0536C16.3511 48.417 18.3876 48.5353 20.4242 48.1719C30.1254 46.7353 36.8351 37.7524 35.3985 28.1695C35.0436 26.133 34.4521 24.2147 33.4887 22.5415Z" fill="white"/>
<path d="M49.1813 1.10254C47.1447 -0.334045 43.3082 -1.17065 36.7252 3.85741C26.1874 11.7586 18.396 26.733 18.0411 27.333L17.5594 28.2879L19.4777 29.3695L20.0777 28.4146C20.0777 28.4146 21.8777 25.0598 24.7508 20.75H24.8691C29.424 22.6683 33.3704 22.6683 36.7252 20.9866C41.035 18.7134 42.835 14.0403 43.4349 12.2403C47.0264 11.522 49.2996 8.53055 50.1446 5.64892C50.6179 3.7391 50.3813 1.93914 49.1813 1.10254ZM47.863 5.17569C47.263 7.33057 45.3448 9.73052 42.3533 10.0854L41.5167 10.2038L41.3984 11.0404C41.3984 11.1587 40.0801 16.7867 35.652 19.0683C33.0154 20.3866 29.7873 20.3866 25.9508 18.8317C29.1874 14.2769 33.3788 9.24884 37.9252 5.65737C40.4435 3.7391 45.1081 0.865929 47.7447 2.9025C48.0996 3.13912 48.2264 3.97572 47.863 5.17569Z" fill="white"/>
</svg>
