<svg width="49" height="46" viewBox="0 0 49 46" fill="none" xmlns="http://www.w3.org/2000/svg">
<path d="M44.6934 0H4.30664C1.93196 0 0 1.93468 0 4.3125V33.0625C0 35.4404 1.93205 37.375 4.30664 37.375H16.766L14.852 43.125H10.1445C9.35163 43.125 8.70898 43.7685 8.70898 44.5625C8.70898 45.3565 9.35163 46 10.1445 46H38.8555C39.6484 46 40.291 45.3565 40.291 44.5625C40.291 43.7685 39.6484 43.125 38.8555 43.125H34.148L32.234 37.375H44.6934C47.068 37.375 49 35.4403 49 33.0625V4.3125C49 1.93459 47.0679 0 44.6934 0ZM17.8785 43.125L19.7926 37.375H29.2074L31.1214 43.125H17.8785ZM46.1289 33.0625C46.1289 33.855 45.4848 34.5 44.6934 34.5H4.30664C3.51518 34.5 2.87109 33.855 2.87109 33.0625V31.625H46.1289V33.0625ZM15.6549 20.4882L14.3492 19.1808L16.379 17.1478L17.6849 18.4554C17.91 18.6808 18.2034 18.8249 18.5192 18.865C18.835 18.9051 19.1551 18.839 19.4293 18.6771C20.236 18.2008 21.0974 17.8419 21.9889 17.6104C22.2968 17.5306 22.5695 17.3507 22.7642 17.0989C22.9589 16.847 23.0645 16.5376 23.0645 16.2191V14.375H25.9355V16.219C25.9355 16.5375 26.0411 16.847 26.2358 17.0989C26.4304 17.3508 26.7031 17.5307 27.0111 17.6105C27.9023 17.8419 28.7637 18.2009 29.5704 18.6774C29.8446 18.8392 30.1647 18.9052 30.4804 18.865C30.7962 18.8248 31.0897 18.6807 31.3147 18.4554L32.6206 17.1478L34.6508 19.1808L33.3451 20.4885C33.12 20.7138 32.9761 21.0076 32.9361 21.3238C32.896 21.6399 32.962 21.9604 33.1237 22.2349C33.5996 23.043 33.9578 23.9055 34.1889 24.798C34.2686 25.1063 34.4483 25.3794 34.6998 25.5743C34.9512 25.7693 35.2603 25.875 35.5783 25.875H37.4199V28.75H31.5326C31.6284 28.2791 31.6777 27.7973 31.6777 27.3125C31.6777 23.3493 28.4578 20.125 24.5 20.125C20.5422 20.125 17.3223 23.3493 17.3223 27.3125C17.3223 27.7973 17.3716 28.2791 17.4674 28.75H11.5801V25.875H13.4216C13.7397 25.875 14.0488 25.7693 14.3004 25.5743C14.5519 25.3794 14.7318 25.1064 14.8116 24.798C15.0422 23.9055 15.4007 23.043 15.8763 22.2349C16.0379 21.9603 16.1039 21.6398 16.0638 21.3236C16.0237 21.0074 15.8799 20.7135 15.6549 20.4881V20.4882ZM28.8066 27.3125C28.8066 27.8048 28.7215 28.291 28.5599 28.75H20.4401C20.2772 28.2883 20.1938 27.8022 20.1934 27.3125C20.1934 24.9346 22.1254 23 24.5 23C26.8746 23 28.8066 24.9347 28.8066 27.3125ZM46.1289 28.75H40.291V24.4375C40.291 23.6435 39.6484 23 38.8555 23H36.6378C36.4885 22.5811 36.3177 22.1703 36.126 21.7691L37.6962 20.1973C38.2566 19.6357 38.2566 18.7256 37.6958 18.1642L33.6355 14.0983C33.3663 13.8289 33.0012 13.6776 32.6206 13.6776C32.2399 13.6775 31.8748 13.8289 31.6056 14.0983L30.0359 15.6707C29.6353 15.4787 29.225 15.3077 28.8066 15.1585V12.9375C28.8066 12.1435 28.164 11.5 27.3711 11.5H21.6289C20.836 11.5 20.1934 12.1435 20.1934 12.9375V15.1585C19.775 15.3077 19.3647 15.4787 18.9641 15.6707L17.3944 14.0983C17.1251 13.8289 16.76 13.6775 16.3793 13.6775C15.9985 13.6775 15.6334 13.8289 15.3641 14.0983L11.3042 18.1642C10.7433 18.7257 10.7433 19.6358 11.3042 20.1973L12.874 21.7695C12.6824 22.1705 12.5116 22.5812 12.3625 23H10.1445C9.35163 23 8.70898 23.6439 8.70898 24.4375V28.75H2.87109V4.3125C2.87109 3.51996 3.51518 2.875 4.30664 2.875H44.6934C45.4848 2.875 46.1289 3.51996 46.1289 4.3125V28.75Z" fill="white"/>
</svg>
