<svg width="59" height="41" viewBox="0 0 59 41" fill="none" xmlns="http://www.w3.org/2000/svg">
<path d="M48.2365 28.7026C50.6545 28.7026 52.6216 26.7355 52.6216 24.3174C52.6216 21.8995 50.6545 19.9324 48.2365 19.9324C45.8185 19.9324 43.8513 21.8995 43.8513 24.3174C43.8513 26.7355 45.8185 28.7026 48.2365 28.7026ZM48.2365 22.2029C49.4025 22.2029 50.3511 23.1515 50.3511 24.3174C50.3511 25.4835 49.4025 26.4322 48.2365 26.4322C47.0705 26.4322 46.1218 25.4835 46.1218 24.3174C46.1217 23.1514 47.0704 22.2029 48.2365 22.2029Z" fill="white"/>
<path d="M39.4662 20.7297C41.8842 20.7297 43.8513 18.7626 43.8513 16.3445C43.8513 13.9266 41.8842 11.9595 39.4662 11.9595C37.0482 11.9595 35.0811 13.9266 35.0811 16.3445C35.0811 18.7625 37.0482 20.7297 39.4662 20.7297ZM39.4662 14.2299C40.6322 14.2299 41.5808 15.1785 41.5808 16.3444C41.5808 17.5105 40.6322 18.4592 39.4662 18.4592C38.3002 18.4592 37.3516 17.5105 37.3516 16.3444C37.3516 15.1785 38.3002 14.2299 39.4662 14.2299Z" fill="white"/>
<path d="M58.999 22.3508V16.5083C58.999 14.1642 58.5979 12.0931 57.8067 10.3524C57.0955 8.78771 56.0675 7.47849 54.7511 6.46121C52.0184 4.34937 48.7775 4.03407 47.0888 4.03407H31.0866V1.1308C31.0866 0.506285 30.5759 0 29.946 0C29.316 0 28.8053 0.506285 28.8053 1.1308V4.03407H11.9111C10.2225 4.03407 6.98153 4.34944 4.24888 6.46121C2.93252 7.47849 1.90442 8.78771 1.1933 10.3524C0.402075 12.0931 0.000950579 14.1642 0.000950579 16.5083V22.3502L0 24.0528V33.3718C0 37.3875 3.29556 40.6546 7.34635 40.6546H10.316C10.5167 40.6642 11.3765 40.6912 12.4051 40.5224C14.0448 40.2535 15.3029 39.6414 16.1443 38.703C17.043 37.7007 17.5658 36.9512 17.6747 36.7912C18.5886 35.5803 19.9519 34.8439 21.7274 34.6023C22.0899 34.553 22.4684 34.5203 22.8838 34.5025H27.2369L27.2565 34.5026L27.2797 34.5017C27.3059 34.5012 29.8903 34.4304 31.0662 35.8877C31.4597 36.3754 32.1774 36.4546 32.6694 36.0644C33.1614 35.6743 33.2411 34.9627 32.8476 34.475C31.0121 32.2002 27.5917 32.2304 27.2188 32.2409H22.8595L22.812 32.2419C22.3146 32.2624 21.8583 32.3017 21.4171 32.3618C19.0005 32.6905 17.1195 33.7347 15.8263 35.4654L15.7911 35.5152C15.7864 35.5222 15.315 36.2236 14.4393 37.2004C13.4396 38.3152 11.1963 38.4404 10.4187 38.3952L10.3824 38.3929H7.34635C4.55343 38.3929 2.28128 36.1405 2.28128 33.3717V24.0534L2.28223 22.3508V16.5083C2.28223 12.7528 3.41583 9.9726 5.65142 8.24486C7.84601 6.54885 10.5153 6.29561 11.9111 6.29561H47.0887C48.4846 6.29561 51.1539 6.54885 53.3484 8.24486C55.5841 9.9726 56.7177 12.7528 56.7177 16.5083V22.3514L56.7187 24.0528V33.3718C56.7187 36.1405 54.4465 38.393 51.6536 38.393H48.654L48.5812 38.3953C47.8575 38.4413 45.5646 38.3202 44.5607 37.2005C43.6849 36.2237 43.2135 35.5222 43.2097 35.5165L43.1737 35.4654C41.8805 33.7348 39.9994 32.6906 37.5832 32.3619C37.2355 32.3145 36.3886 32.2884 35.3175 32.2592C35.061 32.2522 34.851 32.2466 34.74 32.242C34.1107 32.216 33.5791 32.7007 33.5528 33.3246C33.5266 33.9486 34.0156 34.4755 34.6449 34.5016C34.7672 34.5066 34.9824 34.5125 35.2549 34.5199C35.7832 34.5343 37.0206 34.5681 37.2728 34.6024C39.048 34.8439 40.4113 35.5803 41.3252 36.7912C41.4341 36.9511 41.9569 37.7006 42.8557 38.703C43.6971 39.6414 44.9551 40.2535 46.5949 40.5224C47.3058 40.639 47.9361 40.6621 48.3238 40.6621C48.4971 40.6621 48.622 40.6575 48.6839 40.6546H51.6536C55.7044 40.6546 59 37.3875 59 33.3718V24.0521L58.999 22.3508Z" fill="white"/>
<path d="M15.1303 27.9055C15.1311 27.9055 15.1319 27.9055 15.1328 27.9055C15.7606 27.9055 16.2704 27.398 16.2718 26.7708L16.2854 20.2699L22.7825 20.2552C23.4116 20.2538 23.9203 19.7435 23.919 19.1155C23.9176 18.4883 23.4079 17.981 22.78 17.981C22.7791 17.981 22.7782 17.981 22.7773 17.981L16.2901 17.9957L16.3037 11.5045C16.305 10.8765 15.7961 10.3663 15.1671 10.365C15.1663 10.365 15.1655 10.365 15.1646 10.365C14.5367 10.365 14.027 10.8726 14.0256 11.4997L14.012 18.0008L7.51487 18.0155C6.8858 18.0169 6.37703 18.5272 6.37842 19.1552C6.37981 19.7824 6.88947 20.2898 7.5174 20.2898C7.51822 20.2898 7.51917 20.2898 7.52006 20.2898L14.0073 20.275L13.9937 26.7659C13.9923 27.394 14.5012 27.9043 15.1303 27.9055Z" fill="white"/>
</svg>
